<svg xmlns="http://www.w3.org/2000/svg" version="1.1" xmlns:xlink="http://www.w3.org/1999/xlink" xmlns:svgjs="http://svgjs.dev/svgjs" viewBox="0 0 7.169535557787153 2.9309395428757714"><g transform="matrix(1,0,0,1,3.1759042031380624,0.42510727143788585)"><rect width="7.169535557787153" height="2.9309395428757714" x="-3.175904203138063" y="-0.42510727143788585" fill="#ffffff"></rect><g><path d=" M 0.6195 1.0679999999999998 L 0.40950000000000003 0.6779999999999998 L 0.378 0.6779999999999998 L 0.378 1.0679999999999998 L 0.084 1.0679999999999998 L 0.084 0.010499999999999732 L 0.5475 0.010499999999999732 Q 0.675 0.010499999999999732 0.7635000000000001 0.054749999999999854 Q 0.852 0.09899999999999987 0.897 0.1762499999999998 Q 0.9420000000000001 0.25349999999999984 0.9420000000000001 0.3494999999999998 Q 0.9420000000000001 0.4574999999999998 0.88275 0.5392499999999998 Q 0.8235 0.6209999999999998 0.7095 0.6554999999999997 L 0.9480000000000001 1.0679999999999998 L 0.6195 1.0679999999999998 Z M 0.378 0.47699999999999987 L 0.5235 0.47699999999999987 Q 0.5835 0.47699999999999987 0.6135 0.4484999999999998 Q 0.6435 0.4199999999999998 0.6435 0.36599999999999977 Q 0.6435 0.31499999999999984 0.61275 0.28574999999999984 Q 0.582 0.25649999999999984 0.5235 0.25649999999999984 L 0.378 0.25649999999999984 L 0.378 0.47699999999999987 Z M 1.1196745605468752 0.2587499999999998 Q 1.1849245605468752 0.13649999999999984 1.3049245605468751 0.06824999999999981 Q 1.424924560546875 -2.220446049250313e-16 1.5809245605468751 -2.220446049250313e-16 Q 1.778924560546875 -2.220446049250313e-16 1.913924560546875 0.10574999999999979 Q 2.048924560546875 0.2114999999999998 2.0879245605468753 0.3929999999999998 L 1.7714245605468752 0.3929999999999998 Q 1.742924560546875 0.33299999999999985 1.6926745605468752 0.30149999999999977 Q 1.6424245605468752 0.2699999999999998 1.5764245605468752 0.2699999999999998 Q 1.474424560546875 0.2699999999999998 1.413674560546875 0.3427499999999998 Q 1.3529245605468752 0.41549999999999987 1.3529245605468752 0.5369999999999998 Q 1.3529245605468752 0.6599999999999998 1.413674560546875 0.7327499999999998 Q 1.474424560546875 0.8054999999999999 1.5764245605468752 0.8054999999999999 Q 1.6424245605468752 0.8054999999999999 1.6926745605468752 0.7739999999999998 Q 1.742924560546875 0.7424999999999998 1.7714245605468752 0.6824999999999999 L 2.0879245605468753 0.6824999999999999 Q 2.048924560546875 0.8639999999999999 1.913924560546875 0.9697499999999999 Q 1.778924560546875 1.0755 1.5809245605468751 1.0755 Q 1.424924560546875 1.0755 1.3049245605468751 1.0072499999999998 Q 1.1849245605468752 0.9389999999999998 1.1196745605468752 0.8167499999999999 Q 1.0544245605468752 0.6944999999999999 1.0544245605468752 0.5369999999999998 Q 1.0544245605468752 0.3809999999999998 1.1196745605468752 0.2587499999999998 Z" fill="#002540" fill-rule="nonzero"></path></g><g><path d=" M 0.315 2.0807249999999997 L 0.20550000000000002 1.8819749999999997 L 0.17475000000000002 1.8819749999999997 L 0.17475000000000002 2.0807249999999997 L 0.0465 2.0807249999999997 L 0.0465 1.5542249999999997 L 0.26175 1.5542249999999997 Q 0.324 1.5542249999999997 0.367875 1.5759749999999997 Q 0.41175 1.5977249999999996 0.4335 1.6355999999999997 Q 0.45525 1.6734749999999998 0.45525 1.7199749999999998 Q 0.45525 1.7724749999999996 0.42562500000000003 1.8137249999999998 Q 0.396 1.8549749999999996 0.33825 1.8722249999999998 L 0.45975 2.0807249999999997 L 0.315 2.0807249999999997 Z M 0.17475000000000002 1.7912249999999998 L 0.25425000000000003 1.7912249999999998 Q 0.2895 1.7912249999999998 0.307125 1.7739749999999996 Q 0.32475 1.7567249999999996 0.32475 1.7252249999999998 Q 0.32475 1.6952249999999998 0.307125 1.6779749999999998 Q 0.2895 1.6607249999999998 0.25425000000000003 1.6607249999999998 L 0.17475000000000002 1.6607249999999998 L 0.17475000000000002 1.7912249999999998 Z M 0.671233154296875 1.6569749999999996 L 0.671233154296875 1.7634749999999997 L 0.8429831542968751 1.7634749999999997 L 0.8429831542968751 1.8624749999999997 L 0.671233154296875 1.8624749999999997 L 0.671233154296875 1.9779749999999998 L 0.8654831542968751 1.9779749999999998 L 0.8654831542968751 2.0807249999999997 L 0.542983154296875 2.0807249999999997 L 0.542983154296875 1.5542249999999997 L 0.8654831542968751 1.5542249999999997 L 0.8654831542968751 1.6569749999999996 L 0.671233154296875 1.6569749999999996 Z M 1.5524490966796876 1.5542249999999997 L 1.5524490966796876 2.0807249999999997 L 1.4241990966796876 2.0807249999999997 L 1.4241990966796876 1.7649749999999997 L 1.3064490966796876 2.0807249999999997 L 1.2029490966796876 2.0807249999999997 L 1.0844490966796876 1.7642249999999997 L 1.0844490966796876 2.0807249999999997 L 0.9561990966796875 2.0807249999999997 L 0.9561990966796875 1.5542249999999997 L 1.1076990966796876 1.5542249999999997 L 1.2554490966796874 1.9187249999999998 L 1.4016990966796876 1.5542249999999997 L 1.5524490966796876 1.5542249999999997 Z M 1.7804256591796874 1.5542249999999997 L 1.7804256591796874 2.0807249999999997 L 1.6521756591796875 2.0807249999999997 L 1.6521756591796875 1.5542249999999997 L 1.7804256591796874 1.5542249999999997 Z M 1.892912841796875 1.6775999999999998 Q 1.926662841796875 1.6164749999999997 1.987037841796875 1.5823499999999997 Q 2.047412841796875 1.5482249999999997 2.123912841796875 1.5482249999999997 Q 2.217662841796875 1.5482249999999997 2.284412841796875 1.5977249999999996 Q 2.3511628417968753 1.6472249999999997 2.3736628417968753 1.7327249999999996 L 2.2326628417968752 1.7327249999999996 Q 2.216912841796875 1.6997249999999997 2.188037841796875 1.6824749999999997 Q 2.159162841796875 1.6652249999999997 2.122412841796875 1.6652249999999997 Q 2.063162841796875 1.6652249999999997 2.026412841796875 1.7064749999999997 Q 1.989662841796875 1.7477249999999998 1.989662841796875 1.8167249999999997 Q 1.989662841796875 1.8857249999999997 2.026412841796875 1.9269749999999997 Q 2.063162841796875 1.9682249999999997 2.122412841796875 1.9682249999999997 Q 2.159162841796875 1.9682249999999997 2.188037841796875 1.9509749999999997 Q 2.216912841796875 1.9337249999999997 2.2326628417968752 1.9007249999999998 L 2.3736628417968753 1.9007249999999998 Q 2.3511628417968753 1.9862249999999997 2.284412841796875 2.0353499999999998 Q 2.217662841796875 2.084475 2.123912841796875 2.084475 Q 2.047412841796875 2.084475 1.987037841796875 2.05035 Q 1.926662841796875 2.0162249999999995 1.892912841796875 1.9554749999999996 Q 1.859162841796875 1.8947249999999998 1.859162841796875 1.8167249999999997 Q 1.859162841796875 1.7387249999999996 1.892912841796875 1.6775999999999998 Z M 2.588135009765625 1.5542249999999997 L 2.588135009765625 2.0807249999999997 L 2.459885009765625 2.0807249999999997 L 2.459885009765625 1.5542249999999997 L 2.588135009765625 1.5542249999999997 Z M 3.1596221923828125 2.0807249999999997 L 3.0313721923828125 2.0807249999999997 L 2.8168721923828124 1.7559749999999998 L 2.8168721923828124 2.0807249999999997 L 2.6886221923828124 2.0807249999999997 L 2.6886221923828124 1.5542249999999997 L 2.8168721923828124 1.5542249999999997 L 3.0313721923828125 1.8804749999999997 L 3.0313721923828125 1.5542249999999997 L 3.1596221923828125 1.5542249999999997 L 3.1596221923828125 2.0807249999999997 Z M 3.3883370361328127 1.6569749999999996 L 3.3883370361328127 1.7634749999999997 L 3.5600870361328125 1.7634749999999997 L 3.5600870361328125 1.8624749999999997 L 3.3883370361328127 1.8624749999999997 L 3.3883370361328127 1.9779749999999998 L 3.5825870361328125 1.9779749999999998 L 3.5825870361328125 2.0807249999999997 L 3.2600870361328127 2.0807249999999997 L 3.2600870361328127 1.5542249999999997 L 3.5825870361328125 1.5542249999999997 L 3.5825870361328125 1.6569749999999996 L 3.3883370361328127 1.6569749999999996 Z" fill="#002540" fill-rule="nonzero"></path></g><g clip-path="url(&quot;#SvgjsClipPath1010&quot;)"><g clip-path="url(&quot;#SvgjsClipPath1008&quot;)"><path d=" M -0.4005871823537914 0.03432340050500146 C -0.3989630934516293 -0.004397069362785971 -0.4269002222703979 -0.038067059361676474 -0.46525553225129235 -0.043615270588169684 C -0.5017562621249891 -0.05261283102752879 -0.5398406940791625 -0.05306829029113963 -0.5765461610397806 -0.04494621725676412 C -0.5776422347668597 -0.028191947428598183 -0.5790906179062101 -0.01433444387913297 -0.579325490847729 -0.00047694032966776045 C -0.579834382221013 0.030213124028467347 -0.579325490847729 0.06094233387685613 -0.5802649826137936 0.09159325274473754 C -0.5815107310561363 0.10274139180129369 -0.5837376088285295 0.11375788713412599 -0.5869197159567587 0.12451461004727787 C -0.6780769441258085 0.13500950056140273 -0.770225544028742 0.1333244975917497 -0.8609381477258231 0.11950398729493297 C -0.8609381477258231 0.08035849704220754 -0.8603901108622836 0.03960804168912213 -0.861251311647844 -0.00098583170295196 C -0.8623995549037882 -0.014836968836211807 -0.8644789673077444 -0.028595093672460152 -0.8674754445980257 -0.042166887448817615 C -0.8852474971727635 -0.0432238156856397 -0.8993790191539959 -0.04459390784448782 -0.9135888321157342 -0.0447896352957494 C -0.9566488713937302 -0.045337672159290694 -0.9997089106717265 -0.045768272552067536 -1.0425340770082077 -0.0456508360813099 C -1.4518915170776898 -0.04458085934773659 -1.8612098116569182 -0.043367349149899787 -2.2704889607458947 -0.04201030548780631 C -2.2902060948849794 -0.04631553685607049 -2.3108239529833234 -0.042046829175252556 -2.327210776122093 -0.030266658411988674 C -2.3297627349768946 -0.003231224057027013 -2.330782148614776 0.023927000808617996 -2.330264124361803 0.051077670333170816 C -2.3269490831043664 0.07864855478048988 -2.3292121874152025 0.10660454920847065 -2.336918857704767 0.1332831998638908 C -2.4270731789908058 0.1430784835695785 -2.5180892973546087 0.14176379169663547 -2.607923086724373 0.1293686508386183 C -2.619666733800191 0.07632651154617737 -2.6025993000500036 0.020426751465285983 -2.6174354408557856 -0.032693678807658874 C -2.6550005921185624 -0.04651005343644551 -2.6963315551130833 -0.04605035617361727 -2.7335801104356157 -0.03140187762931812 C -2.7690232783698896 -0.02291159674173133 -2.7932846368544455 0.009761245649774514 -2.791163126597373 0.046145338561326465 C -2.791163126597373 0.06250815348696583 -2.7914371450291418 0.07887096841260519 -2.7915154360096475 0.09523378333824456 C -2.794777560197374 0.7297038893543902 -2.7980135873916 1.3641609468737812 -2.801223517592323 1.9986049558964263 C -2.801223517592323 2.012932205328922 -2.8018889909266185 2.027298600251671 -2.801223517592323 2.0416649951744223 C -2.8039847231578983 2.0825552248779906 -2.7749260610629443 2.118729599190689 -2.7344021657309225 2.1248491619614605 C -2.698251001406766 2.1327470105912876 -2.6608957437974907 2.1334254714666683 -2.624481629101276 2.1268455819643504 C -2.62080195301752 2.09811279211885 -2.6175920228167966 2.072746514435084 -2.614499529086831 2.048554601458901 C -2.523663799765599 2.038870214657869 -2.432020444511079 2.039566273389382 -2.341342298103327 2.0506293124422954 C -2.3391501506491723 2.07368600620115 -2.3368405667242613 2.097603900745564 -2.3344918373090984 2.12300932391958 C -2.3125014570079605 2.1289223475363204 -2.289599894984286 2.1306748148911754 -2.2669658666231505 2.128176528632938 C -1.9374913236627263 2.127393618827887 -1.6079906837087996 2.126428030068318 -1.278463946761372 2.125279762354239 C -1.1618103858082558 2.124810016471205 -1.0451568248551395 2.1234399243123603 -0.928542409392275 2.121952395682758 C -0.9101510342421699 2.1253850611505123 -0.8911382462106301 2.122195461407804 -0.8748739422557923 2.1129489329246316 C -0.8724469218601221 2.0889918928899625 -0.8700199014644536 2.0653480167773193 -0.8677494630297964 2.0428785053722542 C -0.7767644826655768 2.0309331600386926 -0.6846739782826101 2.0299606044051366 -0.5934570128289631 2.039981739093555 C -0.5913431563553155 2.062686123440132 -0.5892292998816662 2.086564872494294 -0.5863716790932192 2.1171375003816713 C -0.5472954469764439 2.1254866872167137 -0.5067389859929285 2.1237760693007686 -0.46850460794226434 2.112166023119575 C -0.4331934097145891 2.10364566376881 -0.4083195252799863 2.0720394853037636 -0.40833798942382904 2.0357148806560064 C -0.4075550796187777 2.0235014876971564 -0.40786824354079876 2.011170658267549 -0.4078290980505468 1.998878974328195 C -0.4052193987003663 1.3603377373257655 -0.4026879903306879 0.7217965003233378 -0.4002348729415184 0.08325526332091168 C -0.4001957274512633 0.0670490303562802 -0.39956939960722115 0.05080365190139846 -0.4005871823537914 0.03432340050500146 Z M -2.3431821361452023 1.7599349018255654 C -2.4308132930723643 1.7761040452849528 -2.5205300249264453 1.7775197200096837 -2.608627705548924 1.7641234692826087 C -2.620603003750777 1.677989767956738 -2.621760249813868 1.5906965933341877 -2.6120725086911625 1.5042757049850322 C -2.522285612120781 1.4887135493681756 -2.430461859495409 1.4890580540677816 -2.3407942612397874 1.5052934877316004 C -2.3328833536987865 1.5900324114370963 -2.3336834976192624 1.6753592344321449 -2.343182136145204 1.7599349018255637 Z M -2.33609680240946 1.2153036959394217 C -2.3821243473691975 1.2244350531046142 -2.429204554892082 1.2270703851797802 -2.4759636390824413 1.2231327939899632 C -2.5199652389353124 1.2256008535301504 -2.564085628800636 1.2249860719340435 -2.608001377704875 1.2212929559480863 C -2.6188068782008145 1.1339481497823807 -2.6187279839834865 1.0455997754099053 -2.6077665047633616 0.9582744069400333 C -2.520316846083313 0.948754901882198 -2.4321679467397304 0.947444332459903 -2.344473937323543 0.9543598579147607 C -2.34051255436261 0.9606445478885817 -2.3376406703408525 0.9675529509270921 -2.3359793659387025 0.9747938038266839 C -2.33065557926433 1.0538676941371896 -2.3343352553480874 1.1330198754281977 -2.33609680240946 1.2153036959394232 Z M -2.332612853776968 0.5438019561441998 C -2.331321052598627 0.5863531040489102 -2.333121745150252 0.6290216884243799 -2.3335914910332862 0.6750567849615825 C -2.4264428206272974 0.6843387044574835 -2.520036852751253 0.6833015423677383 -2.612659691044952 0.6719642912316168 C -2.616065348696939 0.5879580691492718 -2.6143429471258197 0.5029732098106087 -2.6123856726131836 0.4192018606697807 C -2.521600855991716 0.4054538800564734 -2.4294485117425575 0.4031655244264815 -2.3380932224123483 0.41239054536580744 C -2.330227928621059 0.45573344929616744 -2.3283837312428854 0.4999546678571123 -2.332612853776968 0.5438019561442015 Z M -1.1536681238356896 1.0753194227956795 C -1.1700925012199388 1.0934019566799682 -1.189537625600473 1.108489147871676 -1.2111337035266891 1.1199061361935336 C -1.3374562005722275 1.1828129390296616 -1.4560278905477264 1.2590683540419654 -1.5776137832726853 1.3301174188506593 C -1.6198909127456285 1.35485736869038 -1.6603282041766914 1.382689812260068 -1.7026053336496327 1.407351471119283 C -1.7286081176562502 1.4233990723105738 -1.756146169342197 1.436814037489015 -1.7848108631803543 1.4473973076478208 C -1.8008863191039703 1.4551392046931748 -1.819623328293402 1.4550863135702103 -1.8356548204831673 1.4472537845289266 C -1.8516863126729308 1.4394212554876409 -1.8632436755967008 1.424673181949583 -1.8670163927110726 1.4072340346485253 C -1.87409423222449 1.3881293677778102 -1.878276812383393 1.368074093829756 -1.8794255131211859 1.3477328894643874 C -1.8814610786143278 1.3028721576347644 -1.8807173142995248 1.2440364857849222 -1.8807956052800305 1.1989800265040358 C -1.8807956052800305 1.139752899751667 -1.8807956052800305 1.046625778440436 -1.8807956052800305 1.0074802881877125 L -1.8789557672381536 1.0074802881877125 C -1.8789557672381536 0.8900438174295412 -1.879856113513966 0.8456528314829522 -1.8784077303746138 0.757849496846094 C -1.8785007828465474 0.7296234858989042 -1.874666929758722 0.7015217380077282 -1.8670163927110743 0.6743521661370419 C -1.8557033460280352 0.6341106021572338 -1.8270097016727884 0.6234630288084937 -1.7863766827904606 0.6342280386279932 C -1.764611837089004 0.6404317827756988 -1.7437039535547594 0.6493209206808251 -1.7241353532886299 0.6606903900388348 C -1.5518951961766465 0.758319242729128 -1.3800073484769362 0.8574356240490235 -1.2084326646992483 0.9563171324274038 C -1.1890244466847093 0.9677719706561365 -1.1711821666106863 0.9816931596814447 -1.1553513799165553 0.9977330611147848 C -1.1443820122731823 1.0075363399854735 -1.1379731203685224 1.0214524092579904 -1.1376540234143175 1.036160552589008 C -1.137334926460113 1.0508686959200257 -1.1431342467449248 1.06504962549736 -1.1536681238356896 1.075319422795683 Z M -0.5917737567480938 1.7585256641764653 C -0.6811552578658797 1.765994401060278 -0.7709878290261467 1.7663739937403953 -0.8604292563525406 1.7596608833937915 C -0.8731383524539005 1.6727603673528677 -0.8741126590681423 1.5845461198471225 -0.863326022631238 1.4973860987005463 C -0.773854299625441 1.4848343454033437 -0.6831383713822383 1.4838607444330763 -0.5934178673387094 1.4944893324218422 C -0.5862200817807794 1.5378816600525906 -0.5845627096990289 1.5820124801658457 -0.5884855355668668 1.6258224522197322 C -0.5862831384010212 1.6700771171586288 -0.5873822566126741 1.7144343878432649 -0.5917737567480938 1.758525664176467 Z M -0.5940833406730048 1.2128766755437497 C -0.6824388742525387 1.2197416642235863 -0.7712003479068357 1.2195714977057401 -0.8595289100767247 1.2123677841704672 C -0.8712529106496103 1.126384543392589 -0.8712529106496103 1.0392078794753112 -0.8595289100767247 0.9532246386974348 C -0.7712949374427445 0.9419607214078131 -0.6820599385266859 0.9408574332257478 -0.5935744492997226 0.9499364175162073 C -0.5831753330446339 1.037285056842405 -0.5833461966029292 1.1255689430783897 -0.5940833406730048 1.212876675543753 Z M -0.5901687916477325 0.6648398120056191 C -0.6780400851728441 0.6773278606142327 -0.7671387147093385 0.6786431636779546 -0.8553403426196815 0.6687543610308917 C -0.8667660772049552 0.5827186280055506 -0.8673053128062633 0.4955860460868887 -0.8569453077200433 0.40941548810659767 C -0.767535537896292 0.39839195916076536 -0.6771721785776412 0.39742031013583495 -0.5875460438007973 0.4065187218278952 C -0.5806813304961986 0.49258347295739424 -0.5815722180192551 0.5790912717035186 -0.5902079371379845 0.6649963939666305 Z" fill="#8c1627" transform="matrix(1,0,0,1,0,0)" fill-rule="evenodd"></path></g></g></g><defs><clipPath id="SvgjsClipPath1010"><path d=" M -2.801575827004596 -0.05077889530441926 h 2.401575827004596 v 2.1822827906088382 h -2.401575827004596 Z"></path></clipPath><clipPath id="SvgjsClipPath1008"><path d=" M -2.801575827004596 -0.05077889530441904 L -0.3999999999999999 -0.05077889530441904 L -0.3999999999999999 2.131503895304419 L -2.801575827004596 2.131503895304419 Z"></path></clipPath></defs></svg>